<?xml version="1.0" standalone="no"?>
<!DOCTYPE svg PUBLIC "-//W3C//DTD SVG 20010904//EN"
 "http://www.w3.org/TR/2001/REC-SVG-20010904/DTD/svg10.dtd">
<svg version="1.0" xmlns="http://www.w3.org/2000/svg"
 width="300.000000pt" height="300.000000pt" viewBox="0 0 300.000000 300.000000"
 preserveAspectRatio="xMidYMid meet">
<metadata>
Created by potrace 1.14, written by Peter Selinger 2001-2017
</metadata>
<g transform="translate(0.000000,300.000000) scale(0.100000,-0.100000)"
fill="#000000" stroke="none">
<path d="M504 2985 c-237 -52 -422 -234 -485 -479 -17 -67 -19 -129 -18 -1006
0 -1041 -3 -1000 69 -1141 43 -87 55 -103 127 -175 92 -91 212 -152 339 -173
34 -5 456 -8 999 -8 l940 2 85 31 c206 73 345 218 413 429 l22 70 0 965 0 965
-23 73 c-65 207 -207 355 -414 430 l-73 27 -960 2 c-771 1 -972 -1 -1021 -12z
m1102 -590 c81 -12 100 -16 164 -35 302 -90 549 -373 608 -700 11 -57 9 -262
-2 -315 -60 -280 -231 -505 -481 -633 -64 -32 -167 -67 -225 -77 -19 -3 -48
-7 -65 -10 -143 -24 -347 11 -500 87 -269 133 -462 404 -491 688 l-6 55 316
-1 c175 -1 320 -4 323 -8 3 -3 5 -42 5 -86 -2 -112 -9 -108 254 -109 159 -1
215 2 228 12 17 12 18 33 19 234 1 170 -2 225 -12 237 -12 14 -44 16 -235 16
-121 0 -228 -4 -236 -9 -10 -7 -15 -33 -18 -88 -1 -42 -5 -80 -8 -83 -3 -3
-147 -5 -321 -5 l-315 0 6 55 c37 347 305 657 648 750 40 10 96 22 123 26 28
3 51 7 52 8 4 3 131 -3 169 -9z"/>
</g>
</svg>
